<?xml version="1.0" encoding="UTF-8" standalone="no"?>
<svg
   id="Vrstva_1"
   data-name="Vrstva 1"
   viewBox="0 0 614.9776 913.21783"
   version="1.1"
   width="614.9776"
   height="913.21783"
   xmlns="http://www.w3.org/2000/svg"
   xmlns:svg="http://www.w3.org/2000/svg">
  <defs
     id="defs4">
    <style
       id="style2">
      .cls-1 {
        fill: none;
        stroke: #0d4738;
        stroke-miterlimit: 10;
        stroke-width: 5px;
      }

      .cls-2 {
        fill: #e0f096;
        stroke-width: 0px;
      }
    </style>
  </defs>
  <path
     class="cls-2"
     d="m 267.10136,910.77759 c -81.99,-11.93 -137.94,-65.97 -144.79,-72.77 -45.339995,-44.94 -60.439995,-95.08 -79.569995,-158.58 -12.04,-39.97 -18.01,-88.33 -29.46,-183.41 -16.4600001,-136.64 -13.77000014,-163.34 -11.8000001,-178.22 7.89,-59.26 16.5100001,-124.1 69.1000001,-159.36 53.909995,-36.15 128.219995,-23.89 175.149995,3.74 50.27,29.6 43.1,61.54 97.86,131.1 75.02,95.3 124.28,80.87 192.7,167.3 28.7,36.25 81.49,102.94 78.57,184.14 -5.27,146.61 -190.29,288.98 -347.76,266.06"
     id="path6" />
  <path
     class="cls-1"
     d="m 126.84136,196.25759 c 1.79,-58.87 4.46,-96.559997 -13,-153.729997 -6.5,-21.27 -19.719995,-45.1500003 -46.029995,-39.1000003 -36.87,8.4800003 -33.81,49.9800003 -18.69,75.8000003 15.14,25.849997 41.15,48.399997 71.319995,53.339997 4.26,0.7 8.58,1.03 12.89,0.96 24.55,-0.4 46.77,-13.82 63.36,-31.18 13.89,-14.539997 29.12,-34.559997 30.86,-55.449997 0.59,-7.05 -1.52,-14.72 -7.07,-19.08 -3.26,-2.55 -7.38,-3.75 -11.48,-4.3 -54.08,-7.16 -69.18,67.58 -75.51,106.439997 -5.07,31.11 -5.69,34.89 -6.65,66.29 z"
     id="path8" />
</svg>
