<?xml version="1.0" encoding="UTF-8" standalone="no"?>
<svg
   id="Vrstva_1"
   data-name="Vrstva 1"
   viewBox="0 0 673.92499 703.112"
   version="1.1"
   width="673.92499"
   height="703.112"
   xmlns="http://www.w3.org/2000/svg"
   xmlns:svg="http://www.w3.org/2000/svg">
  <defs
     id="defs4">
    <style
       id="style2">
      .cls-1 {
        fill: #fa702b;
        stroke-width: 0px;
      }

      .cls-2 {
        fill: none;
        stroke: #0d4738;
        stroke-miterlimit: 10;
        stroke-width: 5px;
      }
    </style>
  </defs>
  <path
     class="cls-1"
     d="m 482.56817,124.41803 c 104.89,20.42 159.22,121.79 161.77,126.71 15.26,29.51 20.22,54.57 23.91,74 19.16,100.85 -15.43,182.55 -26.33,207.37 -18.05,41.09 -48.27,109.9 -119.83,146.05 -35.99,18.19 -70.16,23.17 -91.48,24.29 -47.02,2.48 -93.57,-12.74 -140.61,-10.93 -47.48,1.83 -98.24,20.34 -140.33,-1.71 -23.5,-12.32 -35.51,-31.46 -62.52,-89.41 -58.9,-126.34 -88.3599999,-189.51 -87.10999989,-246.18 0.76,-34.69 2.30999999,-104.97 52.61999989,-157.56 42.14,-44.05 98.04,-54.29 133.05,-60.71 57.84,-10.6 66.82,4 156.99,0.42 97.06,-3.86 94.76,-21.11 139.87,-12.32"
     id="path6" />
  <path
     class="cls-2"
     d="m 277.18817,19.938032 c -5.09,52.34 8.8,94.749998 36.97,107.559998 9.27,4.22 17.46,4.03 21.7,3.89 53.1,-1.79 104.1,-82.759998 86.37,-113.279998 -7.05,-12.1400004 -26.34,-18.63000044 -41.24,-14.2100004 -52.99,15.7400004 -45.38,167.8699984 -44.95,175.3299984"
     id="path8" />
</svg>
