<?xml version="1.0" encoding="UTF-8" standalone="no"?>
<svg
   id="Vrstva_1"
   data-name="Vrstva 1"
   viewBox="0 0 295.33231 874.89081"
   version="1.1"
   width="295.33231"
   height="874.89081"
   xmlns="http://www.w3.org/2000/svg"
   xmlns:svg="http://www.w3.org/2000/svg">
  <defs
     id="defs4">
    <style
       id="style2">
      .cls-1 {
        fill: none;
        stroke: #0d4738;
        stroke-miterlimit: 10;
        stroke-width: 5px;
      }

      .cls-2 {
        fill: #abc2ff;
        stroke-width: 0px;
      }
    </style>
  </defs>
  <path
     class="cls-2"
     d="m 50.083421,874.24939 c 32.17,9.41 86.689999,-87.43 100.109999,-112.35 52.73,-97.88 36.09,-134.81 94.79,-280.51 14.49,-35.97 22.43,-50.91 31.8,-84.8 12.49,-45.19 37.53,-135.8 -6.12,-182.72 -9.62,-10.34 -20.09,-15.88 -32.89,-22.67 -38.48,-20.38 -74.5,-20.77 -91.89,-20.75 -29.05,0.03 -86.559999,0.08 -120.739999,34.11 -18.3100003,18.23 -23.9400003,40.27 -24.74000028,149.55 -0.9,123.13 -1.49000002,211.45 12.08000028,284.18 2.23,11.97 7.19,36.23 8.18,69.78 1.04,34.93 -3.31,43.07 -2.28,69.18 0.98,24.89 7.79,89.99 31.7,96.99"
     id="path6" />
  <path
     class="cls-1"
     d="m 256.71342,12.519385 c 7.21,59.07 0.4,105.040005 -6.8,135.220005 -9.13,38.26 -29.33,94.89 -42.57,92.9 -5.91,-0.89 -7.87,-13.38 -11.52,-29.24 -19.75,-85.77 -17.19,-198.890005 11.63,-204.7000048 2.85,-0.58 4.79,0.13 5.28,0.32 21.49,8.4299998 3.6,106.3500048 -30.64,179.6900048 -17.74,38 -26.31,40.35 -30.29,39.79 -7.36,-1.05 -12.59,-14.06 -18.03,-46.84 -10.63,-64.14 -16.6,-171.1200048 9.77,-176.9000048 4.45,-0.98 8.32,1.25 8.91,1.61 37.06,22.0699998 -27.85,231.0200048 -54.519999,227.7200048 -13.02,-1.61 -16.38,-53.83 -18.13,-80.95 -3.99,-62.000005 9.45,-112.120005 20.229999,-142.4700048"
     id="path8" />
</svg>
