<svg xmlns="http://www.w3.org/2000/svg" width="423.069" height="461.061" fill="none"><path stroke="currentColor" stroke-miterlimit="10" stroke-width="5" d="M397.962 459.65c-73.454-119.26-117.455-197.606-226.917-288.307-40.733-33.74-98.227-63.873-142.566-17.44-62.132 65.072-1.767 143.49 62.038 174.99 63.884 31.533 145.039 42.294 211.42 12.638 9.376-4.182 18.387-9.178 26.856-14.955 48.233-32.909 74.808-88.628 85.047-144.807 8.566-47.047 12.624-106.73-11.247-150.494-8.051-14.773-22.275-27.246-39-28.645-9.811-.8-19.563 2.206-28.425 6.477-116.771 56.524-48.99 224.712-10.728 310.17 30.627 68.417 34.34 76.736 73.509 140.353z"/></svg>
