<?xml version="1.0" encoding="UTF-8"?>
<svg id="Vrstva_1" data-name="Vrstva 1" xmlns="http://www.w3.org/2000/svg" viewBox="0 0 1080 1080">
  <defs>
    <style>
      .cls-1 {
        fill: none;
        stroke: #0d4738;
        stroke-miterlimit: 10;
        stroke-width: 16.77px;
      }

      .cls-2 {
        fill: #e0f096;
        stroke-width: 0px;
      }
    </style>
  </defs>
  <path class="cls-2" d="M499.61,992.93c-81.99-11.93-137.94-65.97-144.79-72.77-45.34-44.94-60.44-95.08-79.57-158.58-12.04-39.97-18.01-88.33-29.46-183.41-16.46-136.64-13.77-163.34-11.8-178.22,7.89-59.26,16.51-124.1,69.1-159.36,53.91-36.15,128.22-23.89,175.15,3.74,50.27,29.6,43.1,61.54,97.86,131.1,75.02,95.3,124.28,80.87,192.7,167.3,28.7,36.25,81.49,102.94,78.57,184.14-5.27,146.61-190.29,288.98-347.76,266.06"/>
  <path class="cls-1" d="M359.35,278.41c1.79-58.87,4.46-96.56-13-153.73-6.5-21.27-19.72-45.15-46.03-39.1-36.87,8.48-33.81,49.98-18.69,75.8,15.14,25.85,41.15,48.4,71.32,53.34,4.26.7,8.58,1.03,12.89.96,24.55-.4,46.77-13.82,63.36-31.18,13.89-14.54,29.12-34.56,30.86-55.45.59-7.05-1.52-14.72-7.07-19.08-3.26-2.55-7.38-3.75-11.48-4.3-54.08-7.16-69.18,67.58-75.51,106.44-5.07,31.11-5.69,34.89-6.65,66.29Z"/>
</svg>
