<?xml version="1.0" encoding="UTF-8"?>
<svg id="Vrstva_1" data-name="Vrstva 1" xmlns="http://www.w3.org/2000/svg" viewBox="0 0 1080 1080">
  <defs>
    <style>
      .cls-1 {
        fill: #fa702b;
        stroke-width: 0px;
      }

      .cls-2 {
        fill: none;
        stroke: #0d4738;
        stroke-miterlimit: 10;
        stroke-width: 16.75px;
      }
    </style>
  </defs>
  <path class="cls-1" d="M680.27,311.61c104.89,20.42,159.22,121.79,161.77,126.71,15.26,29.51,20.22,54.57,23.91,74,19.16,100.85-15.43,182.55-26.33,207.37-18.05,41.09-48.27,109.9-119.83,146.05-35.99,18.19-70.16,23.17-91.48,24.29-47.02,2.48-93.57-12.74-140.61-10.93-47.48,1.83-98.24,20.34-140.33-1.71-23.5-12.32-35.51-31.46-62.52-89.41-58.9-126.34-88.36-189.51-87.11-246.18.76-34.69,2.31-104.97,52.62-157.56,42.14-44.05,98.04-54.29,133.05-60.71,57.84-10.6,66.82,4,156.99.42,97.06-3.86,94.76-21.11,139.87-12.32"/>
  <path class="cls-2" d="M474.89,207.13c-5.09,52.34,8.8,94.75,36.97,107.56,9.27,4.22,17.46,4.03,21.7,3.89,53.1-1.79,104.1-82.76,86.37-113.28-7.05-12.14-26.34-18.63-41.24-14.21-52.99,15.74-45.38,167.87-44.95,175.33"/>
</svg>