<?xml version="1.0" encoding="UTF-8"?>
<svg id="Vrstva_1" data-name="Vrstva 1" xmlns="http://www.w3.org/2000/svg" viewBox="0 0 1080 1080">
  <defs>
    <style>
      .cls-1 {
        fill: #fa702b;
        stroke-width: 0px;
      }

      .cls-2 {
        fill: none;
        stroke: #0d4738;
        stroke-miterlimit: 10;
        stroke-width: 14.47px;
      }
    </style>
  </defs>
  <path class="cls-1" d="M309.53,655.17c-4.65-52.13.13-92.74,2.38-109.01,10.66-77.14,25.26-188.13,103.07-225.67,37.41-18.05,91.49-20.16,127.82,3.12,20.7,13.27,16.1,22.26,40.49,39.65,43.23,30.83,75.01,14.92,108.79,40.22,27.58,20.65,35.59,53.12,39.36,68.37,24.23,98.13-71.13,196.42-117.29,245.78-21.66,23.17-65.04,65.05-131.63,93.8-44.81,19.35-76.63,33.09-106.37,20.12-52.93-23.09-61.05-114.09-66.61-176.38"/>
  <path class="cls-2" d="M769.45,413.24c5.96,19.27,2.82,36.89-7.84,44.8-6.93,5.15-14.98,4.65-16.81,4.49-29.34-2.58-55.37-57.97-41.84-74.74,4.8-5.95,15.45-8.11,21.98-4.08,17.04,10.52,17.15,69.99-17.3,90.16-15.76,9.22-37.43,9.48-53.55.03-18.63-10.92-23.26-30.85-30.27-63.29-4.87-22.53-21.91-101.47,7.63-116.7,7.16-3.69,15.86-3.02,22.09.12,24.08,12.13,30.97,70.94,2.58,106.15-16.44,20.38-46.92,35.58-77.54,27.75-35.08-8.97-48.95-42.69-52.28-50.78-18.13-44.07-2.33-103.1,26.5-112.44,7.83-2.54,19.07-2.2,25.29,4.28,15.03,15.66,1.61,64.46-30.31,88.98-21.8,16.75-60.16,28.23-85.93,9.36-18.01-13.18-21.35-34.95-22.58-42.95-5.51-35.96,13.65-78.62,36.86-80.92,8.95-.88,20.33,4.06,23.13,12.4,8.52,25.42-62.28,83.02-86.53,69.39-7.42-4.17-12.96-16.39-9.52-48.16"/>
</svg>