<svg xmlns="http://www.w3.org/2000/svg" id="Vrstva_1" data-name="Vrstva 1" viewBox="0 0 1080 1080"><defs><style>.cls-1{fill:#0a1a57;stroke-width:0}</style></defs><path d="M79.51 478.57c5.92 0 10.55 4.38 10.55 10.04s-4.63 9.91-10.55 9.91-10.3-4.25-10.3-9.91 4.38-10.04 10.3-10.04m-7.85 29.34h15.83v74.77c0 15.57-10.55 21.23-21.49 21.23-14.03 0-20.46-8.49-20.46-18.02 0-.52.13-3.48.9-5.28H59.7c-.52 1.29-.52 3.09-.52 3.73 0 3.99 2.32 6.44 6.18 6.44s6.31-2.83 6.31-6.95V507.9ZM117.86 531.98h37.06c-2.45-10.04-11.33-12.87-18.02-12.87s-15.7 2.83-19.05 12.87m50.33 29.98c-8.75 9.78-19.43 12.48-29.47 12.48-23.42 0-37.45-15.19-37.45-33.72s15.06-34.23 35.65-34.23c17.63 0 34.23 11.07 34.23 36.16h-54.05c0 10.3 8.37 18.4 22.39 18.4 8.11 0 14.15-2.96 19.69-7.98l9.01 8.88ZM214.5 561.19c10.81 0 19.31-7.34 19.31-20.21s-7.98-21.23-19.82-21.23-18.66 9.39-18.66 20.59 7.34 20.85 19.17 20.85m34.88-81.2v93.05h-15.83v-9.78c-4.76 7.08-12.87 11.2-22.39 11.2-19.17 0-31.79-15.19-31.79-34.23s11.97-33.72 31.92-33.72c8.75 0 16.86 3.6 22.26 11.07V480h15.83ZM333.01 507.91h15.83v65.12h-15.83zm29.09-29.6-16.6 20.72h-12.48l11.97-20.72h17.12ZM403.28 507.91h17.5v1.93l-22.65 27.93 9.78 15.19c3.35 4.89 5.41 7.21 10.17 7.21 1.42 0 5.15-.39 7.72-2.32l5.66 10.94c-5.41 5.28-12.36 5.66-15.57 5.66-9.91 0-15.44-5.41-19.95-11.84l-13.13-21.11v31.53h-15.83v-93.05h15.83v54.82l20.46-26.9ZM296.91 489.21h-.23c-5.67.46-13.64 18.14-14.51 37.36-.1 2.23-.15 4.36-.15 6.41.49-.52.97-1.04 1.45-1.57 13.41-15.1 20.59-36.25 16.17-41.01-.67-.72-1.77-1.2-2.73-1.2m-1.68 85.38c-2.25 0-4.44-.34-6.52-1.03-5.74-1.91-12.06-7.1-15.34-19.91a88.6 88.6 0 0 1-16.96 7.82l-3.5-10.31c6.86-2.33 13.07-5.4 18.59-9.19-.39-4.62-.48-9.88-.21-15.87.86-19.05 9.03-46.46 24.5-47.72 4.31-.36 8.84 1.42 11.82 4.63 11.14 11.99-2.14 40.03-16.01 55.65a74.4 74.4 0 0 1-8.59 8.23c1.49 9.12 4.61 14.84 9.14 16.35 6.99 2.33 20.02-4.4 28.88-19.36l9.37 5.55c-9.19 15.52-23.09 25.17-35.17 25.17M513.55 505.8h15.83v10.94c4.12-8.49 11.84-12.35 21.11-12.35 16.21 0 24.07 11.71 24.07 30.5v36.03h-15.83v-35.91c0-11.32-4.76-17.24-12.61-17.24-9.27 0-16.73 6.95-16.73 20.59v32.56h-15.83V505.8ZM603.76 529.87h37.06C638.37 519.83 629.5 517 622.8 517s-15.7 2.83-19.05 12.87m50.33 29.98c-8.75 9.78-19.43 12.48-29.47 12.48-23.42 0-37.45-15.19-37.45-33.72s15.06-34.23 35.65-34.23c17.63 0 34.23 11.07 34.23 36.16h-54.05c0 10.3 8.37 18.4 22.39 18.4 8.11 0 14.16-2.96 19.69-7.98l9.01 8.88ZM682.51 476.46c5.92 0 10.55 4.38 10.55 10.04s-4.63 9.91-10.55 9.91-10.3-4.25-10.3-9.91 4.38-10.04 10.3-10.04m-7.85 29.34h15.83v74.77c0 15.57-10.55 21.24-21.49 21.24-14.03 0-20.46-8.49-20.46-18.02 0-.52.13-3.47.9-5.28h13.26c-.51 1.29-.51 3.09-.51 3.73 0 3.99 2.32 6.44 6.18 6.44s6.31-2.83 6.31-6.95V505.8ZM720.86 529.87h37.06C755.47 519.83 746.59 517 739.9 517s-15.7 2.83-19.05 12.87m50.33 29.98c-8.75 9.78-19.43 12.48-29.47 12.48-23.42 0-37.45-15.19-37.45-33.72s15.06-34.23 35.65-34.23c17.63 0 34.23 11.07 34.23 36.16h-54.05c0 10.3 8.37 18.4 22.39 18.4 8.11 0 14.16-2.96 19.69-7.98l9.01 8.88ZM817.5 559.08c10.81 0 19.31-7.34 19.31-20.21s-7.98-21.23-19.82-21.23-18.66 9.39-18.66 20.59 7.34 20.85 19.17 20.85m34.88-81.21v93.05h-15.83v-9.78c-4.76 7.08-12.87 11.2-22.39 11.2-19.17 0-31.79-15.19-31.79-34.23s11.97-33.72 31.92-33.72c8.75 0 16.86 3.6 22.26 11.07v-37.58h15.83ZM936.02 570.92h15.83V505.8h-15.83zm11.96-94.72-11.97 20.72h12.48l16.6-20.72h-17.12ZM1006.28 505.8h17.5v1.93l-22.65 27.93 9.78 15.19c3.35 4.89 5.41 7.21 10.17 7.21 1.42 0 5.15-.39 7.72-2.32l5.66 10.94c-5.41 5.28-12.36 5.66-15.57 5.66-9.91 0-15.44-5.41-19.95-11.84l-13.13-21.11v31.53h-15.83v-93.05h15.83v54.82l20.46-26.9ZM899.91 486.97h-.23c-5.67.46-13.64 18.14-14.51 37.36-.1 2.23-.15 4.36-.15 6.41.49-.52.97-1.04 1.45-1.57 13.41-15.1 20.59-36.25 16.17-41.01-.67-.72-1.77-1.2-2.73-1.2m-1.67 85.38c-2.25 0-4.44-.34-6.52-1.03-5.74-1.91-12.06-7.1-15.34-19.91a88.6 88.6 0 0 1-16.96 7.82l-3.5-10.31c6.86-2.33 13.07-5.4 18.59-9.19-.39-4.62-.48-9.88-.21-15.87.86-19.05 9.03-46.46 24.5-47.72 4.31-.36 8.84 1.42 11.82 4.63 11.14 11.99-2.14 40.03-16.01 55.65a74.4 74.4 0 0 1-8.59 8.23c1.49 9.11 4.61 14.84 9.14 16.35 6.99 2.33 20.02-4.4 28.88-19.36l9.37 5.55c-9.19 15.52-23.09 25.17-35.17 25.17M431.46 529.78h69.88v10.93h-69.88z" class="cls-1"/></svg>