<svg xmlns="http://www.w3.org/2000/svg" id="Vrstva_1" data-name="Vrstva 1" viewBox="0 0 1080 1080"><defs><style>.cls-1{fill:#0a1a57;stroke-width:0}</style></defs><path d="M157.61 356.68c9.46 0 16.87 6.99 16.87 16.04s-7.4 15.84-16.87 15.84-16.46-6.79-16.46-15.84 6.99-16.04 16.46-16.04m-12.55 46.9h25.3V523.1c0 24.89-16.87 33.94-34.35 33.94-22.42 0-32.71-13.58-32.71-28.8 0-.82.21-5.56 1.44-8.44h21.19c-.82 2.06-.82 4.94-.82 5.97 0 6.38 3.7 10.29 9.87 10.29s10.08-4.53 10.08-11.11zM218.9 442.05h59.25c-3.91-16.04-18.1-20.57-28.8-20.57s-25.1 4.53-30.45 20.57m80.43 47.93c-13.99 15.63-31.06 19.95-47.11 19.95-37.44 0-59.86-24.27-59.86-53.9s24.07-54.72 56.98-54.72c28.18 0 54.72 17.69 54.72 57.81h-86.4c0 16.46 13.37 29.42 35.79 29.42 12.96 0 22.63-4.73 31.47-12.76l14.4 14.2ZM373.38 488.75c17.28 0 30.86-11.73 30.86-32.3s-12.76-33.94-31.68-33.94-29.83 15.02-29.83 32.91 11.73 33.33 30.65 33.33m55.75-129.81v148.73h-25.3v-15.63c-7.61 11.31-20.57 17.9-35.79 17.9-30.65 0-50.81-24.27-50.81-54.72s19.13-53.9 51.02-53.9c13.99 0 26.95 5.76 35.59 17.69v-60.07h25.3ZM562.82 507.68h25.3V403.59h-25.3zm19.13-151.41-19.13 33.12h19.95l26.54-33.12zM675.13 403.58h27.98v3.09l-36.21 44.64 15.63 24.27c5.35 7.82 8.64 11.52 16.25 11.52 2.27 0 8.23-.62 12.35-3.7l9.05 17.49c-8.64 8.43-19.75 9.05-24.89 9.05-15.84 0-24.69-8.64-31.89-18.93l-20.98-33.74v50.4h-25.3V358.94h25.3v87.64l32.71-42.99ZM505.1 373.69c-.12 0-.24 0-.36.01-9.07.74-21.81 29-23.2 59.71-.16 3.56-.24 6.98-.24 10.25.79-.83 1.55-1.66 2.31-2.52 21.43-24.14 32.92-57.95 25.85-65.55-1.07-1.16-2.82-1.91-4.37-1.91m-2.66 136.47c-3.6 0-7.09-.54-10.42-1.64-9.18-3.06-19.28-11.35-24.51-31.83-8.39 5.02-17.48 9.22-27.11 12.49l-5.6-16.48c10.96-3.72 20.89-8.63 29.71-14.69-.62-7.39-.77-15.8-.34-25.37 1.38-30.46 14.44-74.26 39.17-76.27 6.89-.57 14.13 2.27 18.89 7.39 17.81 19.17-3.42 63.98-25.58 88.96-4.17 4.7-8.77 9.09-13.73 13.15 2.38 14.57 7.37 23.72 14.61 26.13 11.17 3.73 32.01-7.04 46.16-30.95l14.98 8.87c-14.69 24.81-36.91 40.23-56.23 40.24M144.04 570.27h25.3v17.49c6.58-13.58 18.93-19.75 33.74-19.75 25.92 0 38.47 18.72 38.47 48.75v57.6h-25.3v-57.39c0-18.1-7.61-27.57-20.16-27.57-14.81 0-26.75 11.11-26.75 32.91v52.05h-25.3zM288.24 608.73h59.24c-3.91-16.04-18.1-20.57-28.8-20.57s-25.1 4.53-30.44 20.57m80.43 47.94c-13.99 15.63-31.06 19.95-47.11 19.95-37.44 0-59.86-24.27-59.86-53.9S285.77 568 318.68 568c28.18 0 54.72 17.69 54.72 57.81H287c0 16.46 13.37 29.42 35.79 29.42 12.96 0 22.63-4.73 31.47-12.76l14.4 14.2ZM414.12 523.36c9.46 0 16.87 6.99 16.87 16.05s-7.4 15.84-16.87 15.84-16.46-6.79-16.46-15.84 6.99-16.05 16.46-16.05m-12.55 46.91h25.3v119.52c0 24.89-16.87 33.94-34.35 33.94-22.42 0-32.71-13.58-32.71-28.8 0-.82.21-5.55 1.44-8.43h21.19c-.82 2.06-.82 4.94-.82 5.97 0 6.38 3.7 10.29 9.87 10.29s10.08-4.53 10.08-11.11V570.28ZM475.42 608.73h59.25c-3.91-16.04-18.1-20.57-28.8-20.57s-25.1 4.53-30.45 20.57m80.43 47.94c-13.99 15.63-31.06 19.95-47.11 19.95-37.44 0-59.86-24.27-59.86-53.9S472.95 568 505.86 568c28.18 0 54.72 17.69 54.72 57.81h-86.4c0 16.46 13.37 29.42 35.8 29.42 12.96 0 22.62-4.73 31.47-12.76zM629.9 655.43c17.28 0 30.86-11.73 30.86-32.3s-12.76-33.94-31.68-33.94-29.83 15.02-29.83 32.91 11.73 33.33 30.65 33.33m55.74-129.8v148.73h-25.3v-15.64c-7.61 11.31-20.57 17.9-35.79 17.9-30.65 0-50.81-24.27-50.81-54.72s19.13-53.9 51.02-53.9c13.99 0 26.95 5.76 35.59 17.69v-60.07h25.3ZM819.34 570.27h25.3v104.09h-25.3zm46.49-47.32-26.54 33.12h-19.95l19.13-33.12zM931.65 570.27h27.98v3.09L923.42 618l15.63 24.27c5.35 7.82 8.64 11.52 16.25 11.52 2.27 0 8.23-.62 12.35-3.7l9.05 17.49c-8.64 8.43-19.75 9.05-24.89 9.05-15.84 0-24.69-8.64-31.89-18.93l-20.98-33.74v50.4h-25.3V525.63h25.3v87.64l32.71-42.99ZM761.62 540.16c-.12 0-.24 0-.36.01-9.07.74-21.81 29-23.2 59.71-.16 3.56-.24 6.98-.23 10.25.78-.83 1.55-1.66 2.31-2.52 21.43-24.14 32.92-57.95 25.85-65.55-1.07-1.16-2.82-1.91-4.37-1.91m-2.67 136.47c-3.6 0-7.09-.54-10.42-1.64-9.18-3.06-19.28-11.35-24.51-31.83-8.39 5.02-17.48 9.22-27.11 12.49l-5.6-16.48c10.96-3.72 20.89-8.63 29.71-14.69-.62-7.39-.77-15.8-.34-25.37 1.38-30.46 14.44-74.26 39.17-76.27 6.89-.57 14.13 2.27 18.89 7.39 17.81 19.17-3.42 63.98-25.58 88.96-4.17 4.7-8.77 9.09-13.73 13.15 2.38 14.57 7.37 23.72 14.61 26.13 11.17 3.73 32.01-7.04 46.16-30.95l14.98 8.87c-14.69 24.81-36.91 40.23-56.23 40.24" class="cls-1"/></svg>