<?xml version="1.0" encoding="UTF-8"?>
<svg id="Vrstva_1" data-name="Vrstva 1" xmlns="http://www.w3.org/2000/svg" viewBox="0 0 1080 1080">
  <defs>
    <style>
      .cls-1 {
        fill: none;
        stroke: #0d4738;
        stroke-miterlimit: 10;
        stroke-width: 14.85px;
      }

      .cls-2 {
        fill: #abc2ff;
        stroke-width: 0px;
      }
    </style>
  </defs>
  <path class="cls-2" d="M442.42,975.55c32.17,9.41,86.69-87.43,100.11-112.35,52.73-97.88,36.09-134.81,94.79-280.51,14.49-35.97,22.43-50.91,31.8-84.8,12.49-45.19,37.53-135.8-6.12-182.72-9.62-10.34-20.09-15.88-32.89-22.67-38.48-20.38-74.5-20.77-91.89-20.75-29.05.03-86.56.08-120.74,34.11-18.31,18.23-23.94,40.27-24.74,149.55-.9,123.13-1.49,211.45,12.08,284.18,2.23,11.97,7.19,36.23,8.18,69.78,1.04,34.93-3.31,43.07-2.28,69.18.98,24.89,7.79,89.99,31.7,96.99"/>
  <path class="cls-1" d="M649.05,113.82c7.21,59.07.4,105.04-6.8,135.22-9.13,38.26-29.33,94.89-42.57,92.9-5.91-.89-7.87-13.38-11.52-29.24-19.75-85.77-17.19-198.89,11.63-204.7,2.85-.58,4.79.13,5.28.32,21.49,8.43,3.6,106.35-30.64,179.69-17.74,38-26.31,40.35-30.29,39.79-7.36-1.05-12.59-14.06-18.03-46.84-10.63-64.14-16.6-171.12,9.77-176.9,4.45-.98,8.32,1.25,8.91,1.61,37.06,22.07-27.85,231.02-54.52,227.72-13.02-1.61-16.38-53.83-18.13-80.95-3.99-62,9.45-112.12,20.23-142.47"/>
</svg>