<?xml version="1.0" encoding="UTF-8" standalone="no"?>
<!-- Created with Inkscape (http://www.inkscape.org/) -->

<svg
   width="322.46387mm"
   height="158.44138mm"
   viewBox="0 0 322.46387 158.44138"
   version="1.1"
   id="svg639"
   xmlns="http://www.w3.org/2000/svg"
   xmlns:svg="http://www.w3.org/2000/svg">
  <defs
     id="defs636">
    <clipPath
       clipPathUnits="userSpaceOnUse"
       id="clipPath52">
      <path
         d="M 0,0 H 4971.875 V 7062.5 H 0 Z"
         id="path50" />
    </clipPath>
    <clipPath
       clipPathUnits="userSpaceOnUse"
       id="clipPath58">
      <path
         d="M 0,0 H 4959.375 V 7015.625 H 0 Z"
         id="path56" />
    </clipPath>
    <clipPath
       clipPathUnits="userSpaceOnUse"
       id="clipPath64">
      <path
         d="M 0,0 H 4959.375 V 7015.625 H 0 Z"
         id="path62" />
    </clipPath>
    <clipPath
       clipPathUnits="userSpaceOnUse"
       id="clipPath70">
      <path
         d="M 941.56006,6723.0171 4753.6426,4488.4307 6277.0806,7087.333 2464.998,9321.9199 Z"
         id="path68" />
    </clipPath>
    <clipPath
       clipPathUnits="userSpaceOnUse"
       id="clipPath76">
      <path
         d="M 941.56006,6723.0171 4753.6426,4488.4307 6277.0806,7087.333 2464.998,9321.9199 Z"
         id="path74" />
    </clipPath>
  </defs>
  <g
     id="layer1"
     transform="translate(47.603075,-45.294779)">
    <g
       id="g46"
       transform="matrix(0.08466666,0,0,0.08466666,-145.03291,-390.25338)">
      <g
         id="g48"
         clip-path="url(#clipPath52)">
        <g
           id="g54"
           clip-path="url(#clipPath58)">
          <g
             id="g60"
             clip-path="url(#clipPath64)">
            <g
               id="g66"
               clip-path="url(#clipPath70)">
              <g
                 id="g72"
                 clip-path="url(#clipPath76)">
                <g
                   id="g78"
                   transform="matrix(44.796818,-26.259228,26.259228,44.796818,102.79128,5867.1318)">
                  <path
                     d="M 9.6999998,41.439999 C 8.6899996,37.610001 5.8299999,36.48 5.7199998,32.43 c -0.02,-0.76 -0.08,-2.869999 1.19,-4.069999 1.4899998,-1.41 4.3700002,-1.15 7.1300002,0.86 2.410001,2.09 7.03,5.39 12.03,4.380001 0.959999,-0.189998 1.719999,-0.459999 2.77,-0.939998 2.58,-1.180001 4.299999,-3.010001 9.209999,-6.09 C 42,24.090004 47.23,22.630003 50.970001,25.470003 c 1.930001,1.469999 3.099999,3.83 4.849999,5.550001 3.729999,3.66 9.340004,3.770001 14.330002,3.099999 4.989997,-0.66 10.169998,-1.869999 14.949996,-0.169998 2.349999,0.84 4.669999,2.659999 5.120003,5.29 0.540001,3.16 -1.75,6.040001 -4.099998,8.010003 -2.349999,1.970001 -5.099999,3.799999 -6.129998,6.819999 -2.25,6.610001 5.180001,13.790001 2.839997,20.370003 -1.470001,4.139999 -6.349999,5.769997 -10.360001,4.840004 -2.069999,-0.480003 -3.839996,-0.870003 -10.75,-6.230003 C 52.959999,66.26001 50.68,63.53001 45.139999,61.580009 41.73,60.380009 39.68,60.390011 38.41,60.51001 c -1.790001,0.169998 -3.68,0.729999 -9.110001,4.069999 -2.899999,1.779999 -5.899999,4.779999 -9.1,5.769997 -3.68,1.139999 -8.26,-1.059997 -10.5000001,-4.269997 -2.8800002,-4.119998 -2.04,-9.84 -1.1900006,-15.639999 C 9.29,45 10.43,44.220001 9.6999998,41.439999 Z"
                     style="fill:#ff66c4;fill-opacity:1;fill-rule:nonzero;stroke:none"
                     id="path80" />
                </g>
              </g>
            </g>
          </g>
        </g>
      </g>
    </g>
  </g>
</svg>
