<?xml version="1.0" encoding="UTF-8" standalone="no"?>
<svg
   id="Vrstva_1"
   data-name="Vrstva 1"
   viewBox="0 0 477.32086 409.12323"
   version="1.1"
   width="477.32086"
   height="409.12323"
   xmlns="http://www.w3.org/2000/svg"
   xmlns:svg="http://www.w3.org/2000/svg">
  <defs
     id="defs4">
    <style
       id="style2">
      .cls-1 {
        fill: #0a1a57;
      }

      .cls-1, .cls-2 {
        stroke-width: 0px;
      }

      .cls-2 {
        fill: #abc2ff;
      }
    </style>
  </defs>
  <path
     class="cls-1"
     d="m 45.866129,242.35655 c 23.55,-13.42 52.35,-13.71 79.200001,-9.96 23.24,3.25 48.1,10.58 61.48,29.85 15.46,22.29 10.39,52.34 4.47,78.82 -16.59,74.12 -92.430001,83.32 -154.970001,48.65 -55.58,-30.81 -42.6299997,-117.45 9.83,-147.35"
     id="path6" />
  <path
     class="cls-1"
     d="m 247.46613,329.47655 c 1.06,9.69 3.42,18.56 7.64,25.57 15.22,25.25 63.06,39.27 90.38,42.31 64,7.13 143.01,-60.88 130.52,-128.41 -6.83,-36.9 -39.53,-57.92 -72.67,-69.26 -29.44,-10.07 -62.13,-14.05 -91.56,-3.95 -30.03,10.31 -49.04,34.19 -57.05,64.33 -4.84,18.22 -9.8,46.17 -7.27,69.4"
     id="path8" />
  <path
     class="cls-1"
     d="m 130.60613,15.93655 c 18,-9.61 38.57,-13.25 58.9,-15.08000002 26.12,-2.34999998 55.32,-0.86 74.2,17.34000002 14.82,14.28 19.92,35.94 20.98,56.5 1.69,32.67 -5.62,84.31 -37.27,102.84 -22.58,13.22 -61.73,7.97 -85.69,0.39 -26.7,-8.45 -46.06,-27.71 -57.55,-52.97 -18.330001,-40.28 -16.440001,-86.12 26.43,-109.01"
     id="path10" />
  <path
     class="cls-2"
     d="m 98.916129,381.76655 c 1.100001,-8.6 -4.98,-16.45 -13.58,-17.55 -8.59,-1.1 -16.45,4.98 -17.55,13.58 -1.1,8.6 4.98,16.46 13.58,17.55 8.59,1.09 16.45,-4.99 17.55,-13.58"
     id="path12" />
  <path
     class="cls-2"
     d="m 295.16613,286.42655 c 1.1,-8.6 -4.98,-16.46 -13.58,-17.55 -8.6,-1.1 -16.45,4.98 -17.55,13.58 -1.1,8.6 4.98,16.46 13.58,17.55 8.6,1.1 16.45,-4.99 17.55,-13.58"
     id="path14" />
  <path
     class="cls-2"
     d="m 246.25613,113.41655 c 0.86,-6.73 -3.91,-12.89 -10.64,-13.75 -6.73,-0.86 -12.89,3.91 -13.74,10.64 -0.86,6.73 3.9,12.89 10.64,13.75 6.73,0.85 12.89,-3.91 13.75,-10.64"
     id="path16" />
</svg>
