<?xml version="1.0" encoding="UTF-8" standalone="no"?>
<!-- Created with Inkscape (http://www.inkscape.org/) -->

<svg
   width="102.72092mm"
   height="87.779549mm"
   viewBox="0 0 102.72092 87.779549"
   version="1.1"
   id="svg316"
   xmlns="http://www.w3.org/2000/svg"
   xmlns:svg="http://www.w3.org/2000/svg">
  <defs
     id="defs313">
    <clipPath
       clipPathUnits="userSpaceOnUse"
       id="clipPath342">
      <path
         d="m 4148.7114,360.97495 h 631.25 v 525 h -631.25 z"
         clip-rule="evenodd"
         id="path340" />
    </clipPath>
    <clipPath
       clipPathUnits="userSpaceOnUse"
       id="clipPath238">
      <path
         d="M 3745.3015,0 H 4959.375 V 1037.448 H 3745.3015 Z"
         clip-rule="evenodd"
         id="path236" />
    </clipPath>
  </defs>
  <g
     id="layer1"
     transform="translate(-70.773553,-29.934968)">
    <g
       id="g232"
       transform="matrix(-0.08466666,0,0,0.08466666,490.66727,29.934968)">
      <g
         id="g234"
         clip-path="url(#clipPath238)">
        <g
           id="g240"
           transform="matrix(15.847802,0,0,15.847802,3746.1357,-359.10803)">
          <path
             d="m 35.529999,33.919998 c -1,-1.599998 -2,-3.17 -3.049999,-4.69 l 1.639999,-1.14 c 1.080002,1.549999 2.130001,3.16 3.119999,4.780001 z m -5.17,-7.61 c -1.129999,-1.48 -2.31,-2.950001 -3.510001,-4.340001 l 1.520001,-1.309999 c 1.229999,1.43 2.43,2.92 3.59,4.449999 z m -5.92,-7 c -1.280001,-1.360001 -2.610001,-2.690001 -4,-3.940001 l 1.36,-1.46 c 1.379999,1.28 2.74,2.64 4,3.999999 z M 17.790001,13 c -1.42,-1.21 -2.889999,-2.38 -4.37,-3.46 L 14.6,7.8800001 C 16.120001,8.9899998 17.6,10.18 19.09,11.43 Z M 10.47,7.4299998 c -1.5799997,-1 -3.1899998,-2 -4.7699997,-2.8699999 l 1,-1.7599999 c 1.6299996,0.8900001 3.2800002,1.8900001 4.9100007,3.0000002 z"
             style="fill:#ff66c4;fill-opacity:1;fill-rule:nonzero;stroke:none"
             id="path242" />
          <path
             d="m 93,88.080002 h -0.169998 v -2 H 93 c 1.82,0 3.730003,-0.06 5.68,-0.190003 l 0.129998,2 C 96.779999,88 94.82,88.080002 93,88.080002 Z M 88.82,88 c -2.07,-0.120003 -4.080002,-0.330002 -6,-0.629997 l 0.309997,-2 c 1.916382,0.300781 3.843048,0.504112 5.779999,0.61 z m 13.9,-0.43 -0.21,-2 c 1.87,-0.199997 3.83,-0.449997 5.82,-0.760002 l 0.3,2 c -2.03,0.279998 -4.02,0.54 -5.91,0.730003 z m -23.800002,-1 c -1.964058,-0.477539 -3.88739,-1.084206 -5.769996,-1.82 l 0.739997,-1.860001 c 1.792687,0.705895 3.626023,1.282563 5.5,1.730004 z M 112.53,86.139999 l -0.36,-2 C 114.04,83.809998 115.98,83.419998 117.94,83 l 0.43,2 c -1.99,0.400002 -3.96,0.790001 -5.84,1.129997 v 0.01 z M 69.529999,83.07 c -1.797775,-0.944786 -3.507775,-2.028122 -5.129997,-3.25 l 1.209999,-1.599999 c 1.532432,1.159302 3.149093,2.185967 4.849998,3.080002 z M 61.329998,77.229996 C 59.851704,75.855171 58.475037,74.38517 57.199997,72.819992 l 1.549999,-1.269997 c 1.219319,1.494439 2.532654,2.901108 3.939999,4.220002 z m -6.549999,-7.589997 c -1.09,-1.540001 -2.150002,-3.190002 -3.25,-5 l 1.720001,-1 c 1.07,1.800003 2.110001,3.410004 3.169998,4.910004 z M 49.579998,61.16 c -0.849998,-1.560002 -1.75,-3.279999 -2.75,-5.279999 L 48.619999,54.98 c 1,2 1.880001,3.689998 2.720001,5.220001 z"
             style="fill:#ff66c4;fill-opacity:1;fill-rule:nonzero;stroke:none"
             id="path244" />
          <path
             d="m 122.25,84.089996 -0.46,-1.940002 2.86,-0.699997 0.49,1.940002 c -0.97,0.239998 -1.94,0.480004 -2.89,0.699997 z M 45.060001,52.34 42.299999,46.669998 44.09,45.789997 l 2.770001,5.68 z m -4.849998,-9.880001 c -0.5,-1 -1,-2 -1.520001,-3 C 38.250004,38.619999 37.810001,37.809998 37.360001,37 l 1.740001,-1 c 0.459999,0.82 0.91,1.650002 1.360001,2.509998 l 1.540001,3 z M 2.5,2.9400001 C 0.92000002,2.21 0,1.9000001 0,1.89 L 0.64000005,0 C 1.5629342,0.3296586 2.4662673,0.70632523 3.3499999,1.13 Z"
             style="fill:#ff66c4;fill-opacity:1;fill-rule:nonzero;stroke:none"
             id="path246" />
        </g>
      </g>
    </g>
    <g
       id="g336"
       transform="matrix(-0.08466666,0,0,0.08466666,490.66727,29.934968)">
      <g
         id="g338"
         clip-path="url(#clipPath342)">
        <g
           id="g344"
           transform="matrix(1.373238,0,0,1.373238,4125.0918,262.40952)">
          <path
             d="m 167.10001,75 c -0.5,-2 -2.4,-3.199997 -4.4,-2.699997 -1.3,0.300003 -2.39999,1.400002 -2.7,2.699997 -6.39999,24 -22.19999,68.3 -56.99999,95.39999 -24.200002,18.80001 -52.500005,31.80001 -82.500005,37.9 -2,0.39999 -3.299999,2.3 -2.899999,4.3 0.299999,1.39999 1.299999,2.39999 2.6,2.8 24.399998,6.80001 66.799999,21.7 88.300004,47 17,20 32.09999,70.10001 38.69999,94.60001 0.60001,1.89999 2.60001,3.10001 4.5,2.5 1.2,-0.29999 2.2,-1.29999 2.5,-2.5 6.8,-24.89999 24.4,-76.39999 57.30001,-98.29999 29.39999,-19.6 62.09999,-29.39999 80.59999,-33.8 2,-0.5 3.1,-2.5 2.6,-4.5 -0.29999,-1.2 -1.20001,-2.2 -2.39999,-2.5 -22.29999,-6.60001 -63.8,-21.5 -80.8,-43.8 C 185.10001,139.5 172.5,97.800003 167.10001,75 Z M 352,280.5 c -0.29999,-1.20001 -1.5,-1.89999 -2.70001,-1.60001 -0.79999,0.20002 -1.4,0.79999 -1.60001,1.60001 -3.89999,14.70001 -13.6,41.79999 -34.89999,58.29999 -14.79999,11.5 -32.10001,19.39999 -50.5,23.1 -1.20001,0.20002 -2,1.4 -1.70001,2.60001 0.20001,0.79999 0.79998,1.5 1.6,1.70001 14.9,4.20001 40.9,13.20001 54,28.70001 10.4,12.20002 19.60001,42.9 23.70001,57.9 0.29999,1.20001 1.60001,1.89999 2.70002,1.6 0.79998,-0.20001 1.29998,-0.79998 1.6,-1.6 4.20001,-15.20001 14.9,-46.70001 35,-60.10001 18,-12 38,-18 49.29999,-20.70001 1.20001,-0.29999 1.89999,-1.5 1.60001,-2.70001 -0.20002,-0.79999 -0.79999,-1.4 -1.5,-1.60001 -13.70002,-4.1 -39,-13.1 -49.4,-26.79999 C 363,320 355.29999,294.5 352,280.5 Z m 73.10001,-167.2 c -0.20002,-0.8 -1,-1.3 -1.79999,-1.09999 -0.5,0.1 -0.9,0.5 -1.10001,1.09999 -2.6,9.80001 -9,27.7 -23.20001,38.7 -9.79999,7.60001 -21.29999,12.89999 -33.5,15.39999 -0.79999,0.2 -1.29999,0.9 -1.20001,1.7 0.1,0.60001 0.5,1 1.1,1.10001 9.9,2.8 27.10001,8.8 35.9,19.1 6.89999,8.10001 13,28.5 15.70001,38.40001 0.20001,0.80001 1,1.2 1.79999,1 0.5,-0.1 0.89999,-0.5 1,-1 2.79999,-10.1 9.89999,-31 23.29999,-39.89999 11.89999,-8 25.20001,-11.9 32.79998,-13.7 0.79999,-0.2 1.29999,-1 1.10001,-1.8 -0.10001,-0.5 -0.5,-0.9 -1,-1.10001 -9.10001,-2.69999 -25.89999,-8.7 -32.79999,-17.8 C 432.5,139.5 427.29999,122.6 425.10001,113.3 Z"
             style="fill:#ffb739;fill-opacity:1;fill-rule:nonzero;stroke:none"
             id="path346" />
        </g>
      </g>
    </g>
  </g>
</svg>
