<svg xmlns="http://www.w3.org/2000/svg" id="Vrstva_1" width="581.92" height="581.92" data-name="Vrstva 1" version="1.1"><defs id="defs4"><style id="style2">.cls-1{fill:#0a1a57;stroke-width:0}</style></defs><path id="path6" d="M581.92 290.96c0 160.69-130.27 290.96-290.96 290.96S0 451.65 0 290.96 130.27 0 290.96 0s290.96 130.27 290.96 290.96" style="stroke-width:0;fill:#ffe8d6"/><path id="path8" d="M376.33 303.09c-.69.76-1.38 1.52-2.06 2.28-34.82 39.23-53.48 94.14-42 106.5 1.89 2.03 5.05 3.29 7.68 3.08 17.39-1.42 39.61-49.95 37.68-95.78-.24-5.7-.67-11.06-1.3-16.08m-122.37-1.81c-1.3 1.38-2.55 2.74-3.75 4.09-34.82 39.23-53.48 94.14-42 106.5 1.89 2.03 5.04 3.29 7.68 3.08 14.74-1.2 35.44-47.12 37.69-97.01.26-5.78.38-11.34.38-16.66m85.47 141.97c-10.31 0-20.78-4.51-27.86-12.13-28.94-31.14 5.54-103.94 41.57-144.52 4.6-5.19 9.52-10.15 14.73-14.86-2.43-4.84-5.3-8.74-8.57-11.64-5.84-5.17-13.35-7.31-22.95-6.56-18.6 1.47-38.09 11.29-55.04 23.65 1.05 12.61 1.22 26.63.53 42.03-2.23 49.48-23.46 120.64-63.64 123.91-11.15.94-22.96-3.69-30.69-12.02-28.93-31.14 5.55-103.94 41.56-144.52 6.41-7.22 13.92-14.65 22.24-21.73-3.89-23.46-11.97-38.18-23.67-42.08-18.18-6.05-52 11.44-75 50.28l-24.33-14.41c28.31-47.81 73.84-74.17 108.27-62.7 19.45 6.48 32.73 23.39 39.75 50.48 18.01-11.27 37.92-19.52 57.77-21.09 17.44-1.35 32.2 3.19 43.93 13.58 4.7 4.16 8.81 9.22 12.34 15.16 16.31-11.05 34.53-20.07 54.13-26.73l9.09 26.77c-19.63 6.67-37.22 15.68-52.61 26.94 2.67 10.8 4.3 23.12 4.89 36.9 2.88 68.42-31.22 122.51-63.63 125.15-.94.08-1.88.12-2.83.12" class="cls-1"/><path id="path10" d="M241.85 158.95c0 11.2-9.08 20.29-20.29 20.29s-20.29-9.08-20.29-20.29 9.08-20.29 20.29-20.29 20.29 9.08 20.29 20.29" class="cls-1"/></svg>
